# xmcd
#
# Track frame offsets: 
#        150
#        18062
#        38587
#        56412
#        74137
#        93610
#        115842
#        133845
#        151945
#        169962
#        187550
#
# Disc length: 2744 seconds
#
# Revision: 1
# Processed by: cddbd v1.5.2PL0 Copyright (c) Steve Scherf et al.
# Submitted via: ExactAudioCopyFreeDBPlugin 1.0
#
DISCID=8a0ab60b
DTITLE=荻野目洋子 - NUDIST
DYEAR=1992
DGENRE=JPop
TTITLE0=REPLICA の KISS
TTITLE1=ラストダンスは私に
TTITLE2=いつまでも DON’T LET ME DOWN
TTITLE3=NUDIST
TTITLE4=Joy Luck Club
TTITLE5=SMILE FOR ME
TTITLE6=おねがい POST MAN
TTITLE7=She's just a rival
TTITLE8=わかってないよね CHI，CHI
TTITLE9=HIT IT
TTITLE10=思い出のクリスマス
EXTD=
EXTT0=
EXTT1=
EXTT2=
EXTT3=
EXTT4=
EXTT5=
EXTT6=
EXTT7=
EXTT8=
EXTT9=
EXTT10=
PLAYORDER=
